<svg width="126" height="44" viewBox="0 0 126 44" fill="none" xmlns="http://www.w3.org/2000/svg">
<rect y="6.10352e-05" width="126" height="44" rx="22" fill="#F0F0F0"/>
<path d="M37.8125 22.0001C37.8125 22.2487 37.7137 22.4872 37.5379 22.663C37.3621 22.8388 37.1236 22.9376 36.875 22.9376H23.125C22.8764 22.9376 22.6379 22.8388 22.4621 22.663C22.2863 22.4872 22.1875 22.2487 22.1875 22.0001C22.1875 21.7514 22.2863 21.513 22.4621 21.3371C22.6379 21.1613 22.8764 21.0626 23.125 21.0626H36.875C37.1236 21.0626 37.3621 21.1613 37.5379 21.3371C37.7137 21.513 37.8125 21.7514 37.8125 22.0001Z" fill="black"/>
<path d="M62.618 18.6101H60.49V17.3781H63.934V27.5001H62.618V18.6101Z" fill="black"/>
<path d="M103.812 22.0001C103.812 22.2487 103.714 22.4872 103.538 22.663C103.362 22.8388 103.124 22.9376 102.875 22.9376H96.9375V28.8751C96.9375 29.1237 96.8387 29.3622 96.6629 29.538C96.4871 29.7138 96.2486 29.8126 96 29.8126C95.7514 29.8126 95.5129 29.7138 95.3371 29.538C95.1613 29.3622 95.0625 29.1237 95.0625 28.8751V22.9376H89.125C88.8764 22.9376 88.6379 22.8388 88.4621 22.663C88.2863 22.4872 88.1875 22.2487 88.1875 22.0001C88.1875 21.7514 88.2863 21.513 88.4621 21.3371C88.6379 21.1613 88.8764 21.0626 89.125 21.0626H95.0625V15.1251C95.0625 14.8764 95.1613 14.638 95.3371 14.4621C95.5129 14.2863 95.7514 14.1876 96 14.1876C96.2486 14.1876 96.4871 14.2863 96.6629 14.4621C96.8387 14.638 96.9375 14.8764 96.9375 15.1251V21.0626H102.875C103.124 21.0626 103.362 21.1613 103.538 21.3371C103.714 21.513 103.812 21.7514 103.812 22.0001Z" fill="black"/>
</svg>
